<svg width="150" height="150" viewBox="0 0 150 150" fill="none" xmlns="http://www.w3.org/2000/svg">
<path d="M33.0893 137.197C19.6619 128.149 9.52309 114.999 4.18815 99.712C-1.14678 84.4248 -1.3913 67.8217 3.49114 52.384C8.37358 36.9464 18.1208 23.5033 31.2759 14.0639C44.4311 4.62458 60.2877 -0.304102 76.4759 0.0145234L75.7306 37.8822C67.7174 37.7245 59.8684 40.1642 53.3566 44.8366C46.8448 49.5091 42.0199 56.1634 39.6031 63.8051C37.1863 71.4467 37.3073 79.6653 39.9481 87.2324C42.5889 94.7996 47.6077 101.309 54.2542 105.788L33.0893 137.197Z" fill="#002857"/>
<path d="M75 0C86.9661 1.42694e-07 98.7584 2.86316 109.392 8.35035C120.026 13.8375 129.192 21.7895 136.126 31.542C143.06 41.2945 147.559 52.5644 149.249 64.4106C150.938 76.2568 149.769 88.3353 145.838 99.6373L110.065 87.1955C112.01 81.601 112.589 75.6221 111.753 69.7583C110.917 63.8944 108.69 58.3158 105.257 53.4883C101.825 48.6608 97.2879 44.7246 92.0241 42.0084C86.7604 39.2923 80.9232 37.875 75 37.875V0Z" fill="#02AFEF"/>
<path d="M145.893 99.4786C140.429 115.302 129.828 128.843 115.779 137.945L95.1855 106.158C102.14 101.652 107.387 94.9496 110.092 87.1169L145.893 99.4786Z" fill="#7D00B7"/>
<ellipse cx="75" cy="75.5" rx="39" ry="38.5" fill="#94979A"/>
<path d="M115.797 137.934C103.429 145.951 88.9734 150.146 74.2353 149.996C59.4971 149.846 45.13 145.356 32.9284 137.089L53.1882 107.19C59.514 111.476 66.9626 113.803 74.6035 113.881C82.2444 113.959 89.7389 111.784 96.1509 107.628L115.797 137.934Z" fill="#0050BC"/>
</svg>
