<svg width="153" height="19" viewBox="0 0 153 19" fill="none" xmlns="http://www.w3.org/2000/svg">
<g clip-path="url(#clip0_1156_536)">
<path d="M48.6135 12.503C48.3068 13.211 47.8754 13.8258 47.314 14.3457C46.7543 14.8657 46.0855 15.2756 45.3109 15.5737C44.5364 15.8718 43.6839 16.0225 42.7552 16.0225H38.1201V4.40369H42.7552C43.6839 4.40369 44.5347 4.55104 45.3109 4.84405C46.0872 5.13706 46.7543 5.54355 47.314 6.06352C47.8737 6.58349 48.3068 7.19492 48.6135 7.8978C48.9185 8.60069 49.0727 9.36117 49.0727 10.1792V10.2131C49.0727 11.0312 48.9202 11.795 48.6135 12.503ZM46.3385 10.2131C46.3385 9.70499 46.2501 9.23414 46.0751 8.80224C45.9001 8.37035 45.6558 7.99943 45.3456 7.68948C45.0337 7.37953 44.6577 7.13902 44.2159 6.96796C43.774 6.79689 43.2871 6.71051 42.7552 6.71051H40.7348V13.714H42.7552C43.2871 13.714 43.774 13.631 44.2159 13.465C44.6577 13.299 45.0337 13.0619 45.3456 12.752C45.6575 12.442 45.9001 12.0779 46.0751 11.6561C46.2501 11.2361 46.3385 10.7652 46.3385 10.2453V10.2114V10.2131Z" fill="white"/>
<path d="M60.2436 16.0208L59.1571 13.4159H54.1322L53.0458 16.0208H50.3809L55.4751 4.32068H57.887L62.9813 16.0208H60.247H60.2436ZM56.6429 7.38968L55.0644 11.1565H58.2215L56.6429 7.38968Z" fill="white"/>
<path d="M70.1945 6.75963V16.0208H67.5798V6.75963H63.9636V4.40369H73.8107V6.75963H70.1945Z" fill="white"/>
<path d="M84.6593 16.0208L83.5729 13.4159H78.548L77.4616 16.0208H74.7966L79.8909 4.32068H82.3028L87.397 16.0208H84.6628H84.6593ZM81.0587 7.38968L79.4802 11.1565H82.6372L81.0587 7.38968Z" fill="white"/>
<path d="M98.6685 14.173C98.4657 14.5642 98.1764 14.8962 97.8038 15.1672C97.4313 15.4382 96.9842 15.6482 96.4644 15.7973C95.9446 15.9463 95.3624 16.0208 94.7178 16.0208H89.5647V4.40369H94.4631C95.0384 4.40369 95.5651 4.46974 96.0382 4.60354C96.5112 4.73735 96.9167 4.92704 97.2493 5.17771C97.582 5.42669 97.8419 5.72986 98.0291 6.08384C98.2162 6.43783 98.308 6.83246 98.308 7.26436V7.29823C98.308 7.69795 98.2491 8.04685 98.1296 8.34664C98.01 8.64642 97.8558 8.90725 97.6635 9.12743C97.4711 9.34931 97.2545 9.53562 97.012 9.68466C96.7694 9.83371 96.5285 9.95904 96.2929 10.059C96.6429 10.147 96.9825 10.2656 97.31 10.4147C97.6375 10.5637 97.9234 10.7517 98.166 10.9787C98.4085 11.2056 98.6043 11.4698 98.7499 11.773C98.8972 12.0779 98.9699 12.4285 98.9699 12.8248V12.8587C98.9699 13.3448 98.8677 13.7834 98.665 14.1764L98.6685 14.173ZM97.4278 7.33888C97.4278 6.69188 97.1731 6.17192 96.6637 5.77559C96.1543 5.37926 95.4179 5.1811 94.4562 5.1811H90.4484V9.77782H94.3713C94.8131 9.77782 95.2203 9.72531 95.5929 9.61861C95.9671 9.5136 96.2894 9.35947 96.5615 9.15962C96.8335 8.95806 97.0449 8.7074 97.1991 8.40761C97.3516 8.10613 97.4278 7.76061 97.4278 7.37106V7.33719V7.33888ZM98.0897 12.8248C98.0897 12.1033 97.7813 11.5444 97.1644 11.1514C96.5476 10.7568 95.65 10.5603 94.4735 10.5603H90.4501V15.24H94.7629C95.7817 15.24 96.5909 15.0266 97.1904 14.5981C97.79 14.1713 98.0897 13.5904 98.0897 12.857V12.8231V12.8248Z" fill="white"/>
<path d="M101.945 16.0208V4.40369H102.829V16.0208H101.945Z" fill="white"/>
<path d="M106.478 16.0208V4.40369H107.362V15.2417H114.339V16.0225H106.478V16.0208Z" fill="white"/>
<path d="M116.987 16.0208V4.40369H117.871V15.2417H124.848V16.0225H116.987V16.0208Z" fill="white"/>
<path d="M127.617 16.0208V4.40369H128.501V16.0208H127.617Z" fill="white"/>
<path d="M136.326 5.18279V16.0208H135.442V5.18279H131.299V4.40369H140.469V5.18279H136.326Z" fill="white"/>
<path d="M147.906 11.4072V16.0208H147.022V11.4241L141.928 4.40369H143.031L147.479 10.6433L151.945 4.40369H152.998L147.904 11.4072H147.906Z" fill="white"/>
<path d="M10.8399 2.91992H7.5408C6.98863 2.91992 6.54102 3.35746 6.54102 3.89719V7.12201C6.54102 7.66174 6.98863 8.09928 7.5408 8.09928H10.8399C11.3921 8.09928 11.8397 7.66174 11.8397 7.12201V3.89719C11.8397 3.35746 11.3921 2.91992 10.8399 2.91992Z" fill="white"/>
<path d="M12.3873 11.6256H9.08816C8.536 11.6256 8.08838 12.0631 8.08838 12.6029V15.8277C8.08838 16.3674 8.536 16.805 9.08816 16.805H12.3873C12.9394 16.805 13.3871 16.3674 13.3871 15.8277V12.6029C13.3871 12.0631 12.9394 11.6256 12.3873 11.6256Z" fill="white"/>
<path d="M6.34533 8.87329H3.9403C3.5422 8.87329 3.21948 9.18874 3.21948 9.57787V11.9287C3.21948 12.3179 3.5422 12.6333 3.9403 12.6333H6.34533C6.74342 12.6333 7.06614 12.3179 7.06614 11.9287V9.57787C7.06614 9.18874 6.74342 8.87329 6.34533 8.87329Z" fill="white"/>
<path d="M4.89842 5.78235H3.72363C3.40879 5.78235 3.15356 6.03183 3.15356 6.33958V7.48791C3.15356 7.79566 3.40879 8.04514 3.72363 8.04514H4.89842C5.21326 8.04514 5.46849 7.79566 5.46849 7.48791V6.33958C5.46849 6.03183 5.21326 5.78235 4.89842 5.78235Z" fill="white"/>
<path d="M1.74486 7.53699H0.570068C0.255228 7.53699 0 7.78647 0 8.09422V9.24255C0 9.5503 0.255228 9.79978 0.570068 9.79978H1.74486C2.0597 9.79978 2.31493 9.5503 2.31493 9.24255V8.09422C2.31493 7.78647 2.0597 7.53699 1.74486 7.53699Z" fill="white"/>
<path d="M5.53792 13.4176H4.34927C4.03826 13.4176 3.78613 13.664 3.78613 13.9681V15.1299C3.78613 15.4339 4.03826 15.6804 4.34927 15.6804H5.53792C5.84893 15.6804 6.10106 15.4339 6.10106 15.1299V13.9681C6.10106 13.664 5.84893 13.4176 5.53792 13.4176Z" fill="white"/>
<path d="M34.0395 5.71114C34.0395 5.28771 33.9893 4.87445 33.8992 4.47473H29.7095C30.4216 5.80768 30.8271 7.32185 30.8271 8.92918V10.0572C30.8271 10.7804 30.7422 11.485 30.5879 12.1625H31.5548C31.9655 12.1625 32.3016 12.491 32.3016 12.8925C32.3016 13.2939 31.9655 13.6224 31.5548 13.6224H30.1253C29.9399 14.0747 29.7233 14.5099 29.4738 14.9249C29.7562 15.0299 29.959 15.2958 29.959 15.6058C29.959 16.0072 29.6228 16.3358 29.2122 16.3358H28.4428C27.4257 17.4926 26.1366 18.4106 24.6689 18.9949H28.2054C31.4145 18.9949 34.0395 16.4289 34.0395 13.2922C34.0395 11.839 33.4747 10.5094 32.5511 9.49996C33.4747 8.49051 34.0395 7.15926 34.0395 5.70775V5.71114Z" fill="white"/>
<path d="M27.8936 2.07136H32.6863C31.6137 0.812933 30.0006 0.00842285 28.2055 0.00842285H24.7209C25.9131 0.491129 26.9891 1.19571 27.8918 2.06966L27.8936 2.07136Z" fill="white"/>
<path d="M10.1485 2.06297H10.8398C11.857 2.06297 12.6852 2.87256 12.6852 3.86676V7.09327C12.6852 8.08748 11.857 8.89707 10.8398 8.89707H9.76728C9.76728 8.89707 9.76209 8.89707 9.75862 8.89707H8.77616C8.51972 8.89707 8.31006 9.10032 8.31006 9.35268V10.313C8.31006 10.5637 8.51799 10.7686 8.77616 10.7686H9.75689L12.3872 10.7703C13.4043 10.7703 14.2325 11.5799 14.2325 12.5741V15.8006C14.2325 16.7948 13.4043 17.6044 12.3872 17.6044H10.4742C10.3148 17.6264 10.1935 17.7585 10.1935 17.9211C10.1935 17.977 10.2091 18.0278 10.2351 18.0736L10.301 18.1566C10.7289 18.6664 11.3787 18.9916 12.1013 18.9916H20.9521C25.977 18.9916 30.087 14.9724 30.087 10.0623V8.93433C30.087 4.02258 25.9752 0.00341797 20.9521 0.00341797H12.1013C11.0616 0.00341797 10.1779 0.677513 9.87991 1.60058L9.84352 1.72761C9.84352 1.72761 9.84179 1.74116 9.84179 1.74794C9.84179 1.919 9.97868 2.05619 10.1502 2.06635" fill="url(#paint0_linear_1156_536)"/>
</g>
<defs>
<linearGradient id="paint0_linear_1156_536" x1="8.31006" y1="9.49495" x2="30.0887" y2="9.49495" gradientUnits="userSpaceOnUse">
<stop stop-color="white"/>
<stop offset="1" stop-color="white"/>
</linearGradient>
<clipPath id="clip0_1156_536">
<rect width="153" height="19" fill="white"/>
</clipPath>
</defs>
</svg>
