<svg width="233" height="47" viewBox="0 0 233 47" fill="none" xmlns="http://www.w3.org/2000/svg">
<path d="M73.9494 27.876C73.4821 28.9733 72.8247 29.9263 71.9693 30.7322C71.1166 31.5381 70.0975 32.1733 68.9174 32.6354C67.7372 33.0974 66.4383 33.331 65.0232 33.331H57.9609V15.3228H65.0232C66.4383 15.3228 67.7346 15.5511 68.9174 16.0053C70.1001 16.4594 71.1166 17.0895 71.9693 17.8954C72.8221 18.7013 73.4821 19.6489 73.9494 20.7384C74.4141 21.8278 74.649 23.0065 74.649 24.2744V24.3269C74.649 25.5948 74.4167 26.7787 73.9494 27.876ZM70.4829 24.3269C70.4829 23.5394 70.3483 22.8096 70.0816 22.1402C69.815 21.4708 69.4427 20.8959 68.9702 20.4155C68.4949 19.9351 67.922 19.5623 67.2488 19.2972C66.5756 19.032 65.8337 18.8982 65.0232 18.8982H61.9448V29.753H65.0232C65.8337 29.753 66.5756 29.6244 67.2488 29.3671C67.922 29.1098 68.4949 28.7423 68.9702 28.2619C69.4454 27.7815 69.815 27.2171 70.0816 26.5635C70.3483 25.9125 70.4829 25.1827 70.4829 24.3768V24.3243V24.3269Z" fill="#0050BC"/>
<path d="M91.6725 33.3311L90.0171 29.2936H82.3608L80.7054 33.3311H76.645L84.4069 15.1968H88.0819L95.8438 33.3311H91.6777H91.6725ZM86.1863 19.9535L83.7812 25.7917H88.5914L86.1863 19.9535Z" fill="#0050BC"/>
<path d="M106.832 18.9769V33.331H102.848V18.9769H97.3381V15.3254H112.342V18.9769H106.832Z" fill="#0050BC"/>
<path d="M128.874 33.3311L127.219 29.2936H119.563L117.907 33.3311H113.847L121.609 15.1968H125.284L133.046 33.3311H128.879H128.874ZM123.388 19.9535L120.983 25.7917H125.793L123.388 19.9535Z" fill="#0050BC"/>
<path d="M150.217 30.467C149.908 31.0734 149.467 31.5879 148.899 32.008C148.332 32.428 147.651 32.7535 146.859 32.9845C146.067 33.2155 145.179 33.331 144.197 33.331H136.346V15.3228H143.809C144.686 15.3228 145.488 15.4251 146.209 15.6325C146.93 15.8399 147.548 16.1339 148.055 16.5224C148.561 16.9083 148.957 17.3782 149.243 17.9269C149.528 18.4755 149.668 19.0872 149.668 19.7566V19.8091C149.668 20.4286 149.578 20.9694 149.396 21.434C149.214 21.8987 148.979 22.3029 148.686 22.6442C148.393 22.9881 148.062 23.2768 147.693 23.5079C147.323 23.7389 146.956 23.9331 146.597 24.088C147.131 24.2245 147.648 24.4083 148.147 24.6393C148.646 24.8703 149.082 25.1617 149.451 25.5134C149.821 25.8652 150.119 26.2747 150.341 26.7446C150.565 27.2171 150.676 27.7605 150.676 28.3748V28.4273C150.676 29.1807 150.52 29.8606 150.212 30.4696L150.217 30.467ZM148.327 19.8747C148.327 18.8719 147.938 18.066 147.162 17.4517C146.386 16.8374 145.264 16.5303 143.799 16.5303H137.692V23.6549H143.669C144.343 23.6549 144.963 23.5735 145.531 23.4081C146.101 23.2453 146.592 23.0065 147.006 22.6967C147.421 22.3843 147.743 21.9958 147.978 21.5311C148.21 21.0639 148.327 20.5284 148.327 19.9246V19.8721V19.8747ZM149.335 28.3774C149.335 27.2591 148.865 26.3928 147.925 25.7838C146.985 25.1722 145.618 24.8677 143.825 24.8677H137.695V32.1208H144.266C145.818 32.1208 147.051 31.7901 147.965 31.1259C148.878 30.4644 149.335 29.564 149.335 28.4273V28.3748V28.3774Z" fill="#0050BC"/>
<path d="M155.209 33.331V15.3228H156.556V33.3284H155.209V33.331Z" fill="#0050BC"/>
<path d="M162.116 33.331V15.3228H163.462V32.1208H174.094V33.331H162.116Z" fill="#0050BC"/>
<path d="M178.131 33.331V15.3228H179.477V32.1208H190.109V33.331H178.131Z" fill="#0050BC"/>
<path d="M194.325 33.331V15.3228H195.672V33.3284H194.325V33.331Z" fill="#0050BC"/>
<path d="M207.597 16.5329V33.331H206.25V16.5329H199.938V15.3254H213.909V16.5329H207.597Z" fill="#0050BC"/>
<path d="M225.241 26.1802V33.331H223.894V26.2065L216.132 15.3254H217.814L224.591 24.9963L231.395 15.3254H233L225.238 26.1802H225.241Z" fill="#0050BC"/>
<path d="M51.7382 17.4019C51.7382 12.5533 47.749 8.58411 42.8701 8.58411H29.2629C28.0168 8.58411 26.0024 9.98329 26.0024 11.8261V34.6908C26.1793 36.6754 28.0353 37.9486 29.2788 37.9486H42.8674C47.7437 37.9486 51.7355 33.9821 51.7355 29.1309C51.7355 26.8838 50.8775 24.8283 49.473 23.2664C50.8775 21.7044 51.7355 19.649 51.7355 17.4019H51.7382Z" fill="url(#paint0_linear_37_269)"/>
<mask id="mask0_37_269" style="mask-type:luminance" maskUnits="userSpaceOnUse" x="26" y="8" width="26" height="30">
<path d="M51.7382 17.4019C51.7382 12.5533 47.749 8.58411 42.8701 8.58411H29.2629C27.8214 8.58411 26.0024 10.0883 26.0024 12.0991V34.6908C26.3403 37.1873 28.2491 37.9486 29.4926 37.9486H42.8674C47.7437 37.9486 51.7355 33.9821 51.7355 29.1309C51.7355 26.8838 50.8775 24.8283 49.473 23.2664C50.8775 21.7044 51.7355 19.649 51.7355 17.4019H51.7382Z" fill="white"/>
</mask>
<g mask="url(#mask0_37_269)">
<path d="M53.6496 11.7736H24.854C24.0053 11.7736 23.3174 12.4576 23.3174 13.3014V13.9656C23.3174 14.8094 24.0053 15.4934 24.854 15.4934H53.6496C54.4982 15.4934 55.1861 14.8094 55.1861 13.9656V13.3014C55.1861 12.4576 54.4982 11.7736 53.6496 11.7736Z" fill="#0063BC"/>
<path d="M48.1661 27.3799H30.216C29.6998 27.3799 29.2814 27.7959 29.2814 28.3092V28.7108C29.2814 29.224 29.6998 29.6401 30.216 29.6401H48.1661C48.6823 29.6401 49.1007 29.224 49.1007 28.7108V28.3092C49.1007 27.7959 48.6823 27.3799 48.1661 27.3799Z" fill="#0063BC"/>
<path d="M44.602 31.5775H40.8556C40.3395 31.5775 39.9211 31.9935 39.9211 32.5067V32.9084C39.9211 33.4216 40.3395 33.8377 40.8556 33.8377H44.602C45.1181 33.8377 45.5366 33.4216 45.5366 32.9084V32.5067C45.5366 31.9935 45.1181 31.5775 44.602 31.5775Z" fill="#0063BC"/>
</g>
<path d="M16.7489 13.0862H11.1914C10.5018 13.0862 9.94266 13.6421 9.94266 14.3279V19.8537C9.94266 20.5395 10.5018 21.0954 11.1914 21.0954H16.7489C17.4385 21.0954 17.9976 20.5395 17.9976 19.8537V14.3279C17.9976 13.6421 17.4385 13.0862 16.7489 13.0862Z" fill="#02AFEF"/>
<path d="M19.0985 26.5451H13.5411C12.8514 26.5451 12.2923 27.101 12.2923 27.7868V33.3126C12.2923 33.9984 12.8514 34.5543 13.5411 34.5543H19.0985C19.7882 34.5543 20.3473 33.9984 20.3473 33.3126V27.7868C20.3473 27.101 19.7882 26.5451 19.0985 26.5451Z" fill="#02AFEF"/>
<path d="M9.83968 22.2925H5.7924C5.29519 22.2925 4.89212 22.6933 4.89212 23.1876V27.2119C4.89212 27.7063 5.29519 28.1071 5.7924 28.1071H9.83968C10.3369 28.1071 10.74 27.7063 10.74 27.2119V23.1876C10.74 22.6933 10.3369 22.2925 9.83968 22.2925Z" fill="#02AFEF"/>
<path d="M7.5956 17.5121H5.50464C5.11095 17.5121 4.79181 17.8295 4.79181 18.2209V20.3C4.79181 20.6915 5.11095 21.0088 5.50464 21.0088H7.5956C7.98929 21.0088 8.30843 20.6915 8.30843 20.3V18.2209C8.30843 17.8295 7.98929 17.5121 7.5956 17.5121Z" fill="#02AFEF"/>
<path d="M2.80379 20.2239H0.712829C0.319144 20.2239 0 20.5412 0 20.9327V23.0117C0 23.4032 0.319144 23.7205 0.712829 23.7205H2.80379C3.19748 23.7205 3.51662 23.4032 3.51662 23.0117V20.9327C3.51662 20.5412 3.19748 20.2239 2.80379 20.2239Z" fill="#02AFEF"/>
<path d="M8.56716 29.3173H6.45508C6.06722 29.3173 5.75281 29.6299 5.75281 30.0155V32.1156C5.75281 32.5013 6.06722 32.8139 6.45508 32.8139H8.56716C8.95501 32.8139 9.26943 32.5013 9.26943 32.1156V30.0155C9.26943 29.6299 8.95501 29.3173 8.56716 29.3173Z" fill="#02AFEF"/>
<path d="M15.4262 11.7605H16.4769C18.024 11.7605 19.2807 13.0127 19.2807 14.5484V19.5361C19.2807 21.0744 18.0214 22.3239 16.4769 22.3239H14.8453C14.8453 22.3239 14.8374 22.3239 14.8321 22.3239H13.3378C12.9471 22.3239 12.6303 22.639 12.6303 23.0275V24.5133C12.6303 24.9018 12.9471 25.2168 13.3378 25.2168H14.8268L18.8266 25.2194C20.3737 25.2194 21.6304 26.4716 21.6304 28.0073V32.995C21.6304 34.5333 20.3711 35.7829 18.8266 35.7829H15.9199C15.6796 35.817 15.4922 36.0218 15.4922 36.2712C15.4922 36.3578 15.5159 36.4366 15.5529 36.5048L15.6532 36.6334C16.3053 37.421 17.2901 37.925 18.391 37.925H31.845C39.4828 37.925 45.7319 31.7113 45.7319 24.1169V22.3712C45.7319 14.7768 39.4828 8.56311 31.845 8.56311H18.391C16.8122 8.56311 15.4684 9.60528 15.0143 11.0307L14.9589 11.2276C14.9589 11.2276 14.9562 11.2486 14.9562 11.2591C14.9562 11.5216 15.1648 11.7369 15.4262 11.7526" fill="url(#paint1_linear_37_269)"/>
<defs>
<linearGradient id="paint0_linear_37_269" x1="26.0051" y1="23.2664" x2="51.7382" y2="23.2664" gradientUnits="userSpaceOnUse">
<stop offset="0.14" stop-color="#002857"/>
<stop offset="1" stop-color="#0050BC"/>
</linearGradient>
<linearGradient id="paint1_linear_37_269" x1="12.6329" y1="23.2506" x2="45.7319" y2="23.2506" gradientUnits="userSpaceOnUse">
<stop offset="0.23" stop-color="#02AFEF"/>
<stop offset="0.41" stop-color="#01A5E5"/>
<stop offset="0.7" stop-color="#008ACB"/>
<stop offset="1" stop-color="#0068AB"/>
</linearGradient>
</defs>
</svg>
