<svg width="20" height="20" viewBox="0 0 20 20" fill="none" xmlns="http://www.w3.org/2000/svg">
<path id="Vector" d="M0 7.27273V12.7273H5.90909V7.27273H0ZM0 14.0909V16.5909C0 17.4951 0.359171 18.3622 0.9985 19.0015C1.63783 19.6408 2.50494 20 3.40909 20H5.90909V14.0909H0ZM7.27273 20H12.7273V14.0909H7.27273V20ZM14.0909 20H16.5909C17.4951 20 18.3622 19.6408 19.0015 19.0015C19.6408 18.3622 20 17.4951 20 16.5909V14.0909H14.0909V20ZM20 12.7273V7.27273H14.0909V12.7273H20ZM20 5.90909V3.40909C20 2.50494 19.6408 1.63783 19.0015 0.9985C18.3622 0.359171 17.4951 0 16.5909 0H14.0909V5.90909H20ZM12.7273 0H7.27273V5.90909H12.7273V0ZM12.7273 7.27273V12.7273H7.27273V7.27273H12.7273Z" fill="#02AFEF"/>
</svg>
